<svg width="60" height="60" viewBox="0 0 60 60" fill="none" xmlns="http://www.w3.org/2000/svg">
<path fill-rule="evenodd" clip-rule="evenodd" d="M28.6742 0.549175C29.4064 -0.183058 30.5936 -0.183058 31.3258 0.549175L38.8258 8.04918C39.5581 8.78141 39.5581 9.96859 38.8258 10.7008C38.0936 11.4331 36.9064 11.4331 36.1742 10.7008L31.875 6.40165V20.625C31.875 21.6605 31.0355 22.5 30 22.5C28.9645 22.5 28.125 21.6605 28.125 20.625V6.40165L23.8258 10.7008C23.0936 11.4331 21.9064 11.4331 21.1742 10.7008C20.4419 9.96859 20.4419 8.78141 21.1742 8.04918L28.6742 0.549175ZM30 37.5C31.0355 37.5 31.875 38.3395 31.875 39.375V53.5983L36.1742 49.2992C36.9064 48.5669 38.0936 48.5669 38.8258 49.2992C39.5581 50.0314 39.5581 51.2186 38.8258 51.9508L31.3258 59.4508C30.5936 60.1831 29.4064 60.1831 28.6742 59.4508L21.1742 51.9508C20.4419 51.2186 20.4419 50.0314 21.1742 49.2992C21.9064 48.5669 23.0936 48.5669 23.8258 49.2992L28.125 53.5983V39.375C28.125 38.3395 28.9645 37.5 30 37.5Z" fill="white"/>
<path fill-rule="evenodd" clip-rule="evenodd" d="M0.549175 31.3258C-0.183058 30.5936 -0.183058 29.4064 0.549175 28.6742L8.04918 21.1742C8.78141 20.4419 9.96859 20.4419 10.7008 21.1742C11.4331 21.9064 11.4331 23.0936 10.7008 23.8258L6.40165 28.125H20.625C21.6605 28.125 22.5 28.9645 22.5 30C22.5 31.0355 21.6605 31.875 20.625 31.875H6.40165L10.7008 36.1742C11.4331 36.9064 11.4331 38.0936 10.7008 38.8258C9.96859 39.5581 8.78141 39.5581 8.04918 38.8258L0.549175 31.3258ZM37.5 30C37.5 28.9645 38.3395 28.125 39.375 28.125L53.5983 28.125L49.2992 23.8258C48.5669 23.0936 48.5669 21.9064 49.2992 21.1742C50.0314 20.4419 51.2186 20.4419 51.9508 21.1742L59.4508 28.6742C60.1831 29.4064 60.1831 30.5936 59.4508 31.3258L51.9508 38.8258C51.2186 39.5581 50.0314 39.5581 49.2992 38.8258C48.5669 38.0936 48.5669 36.9064 49.2992 36.1742L53.5983 31.875H39.375C38.3395 31.875 37.5 31.0355 37.5 30Z" fill="white"/>
</svg>
