<svg width="60" height="60" viewBox="0 0 60 60" fill="none" xmlns="http://www.w3.org/2000/svg">
<path fill-rule="evenodd" clip-rule="evenodd" d="M40.7008 26.7992C41.4331 27.5314 41.4331 28.7186 40.7008 29.4508L29.4508 40.7008C29.0992 41.0525 28.6223 41.25 28.125 41.25C27.6277 41.25 27.1508 41.0525 26.7992 40.7008L21.1742 35.0758C20.4419 34.3436 20.4419 33.1564 21.1742 32.4242C21.9064 31.6919 23.0936 31.6919 23.8258 32.4242L28.125 36.7234L38.0492 26.7992C38.7814 26.0669 39.9686 26.0669 40.7008 26.7992Z" fill="white"/>
<path d="M15 5.625H11.25C7.10787 5.625 3.75 8.98286 3.75 13.125V52.5C3.75 56.6421 7.10787 60 11.25 60H48.75C52.8921 60 56.25 56.6421 56.25 52.5V13.125C56.25 8.98286 52.8921 5.625 48.75 5.625H45V9.375H48.75C50.8211 9.375 52.5 11.0539 52.5 13.125V52.5C52.5 54.5711 50.8211 56.25 48.75 56.25H11.25C9.17893 56.25 7.5 54.5711 7.5 52.5V13.125C7.5 11.0539 9.17893 9.375 11.25 9.375H15V5.625Z" fill="white"/>
<path d="M35.625 3.75C36.6605 3.75 37.5 4.58947 37.5 5.625V9.375C37.5 10.4105 36.6605 11.25 35.625 11.25H24.375C23.3395 11.25 22.5 10.4105 22.5 9.375V5.625C22.5 4.58947 23.3395 3.75 24.375 3.75H35.625ZM24.375 0C21.2684 0 18.75 2.5184 18.75 5.625V9.375C18.75 12.4816 21.2684 15 24.375 15H35.625C38.7316 15 41.25 12.4816 41.25 9.375V5.625C41.25 2.5184 38.7316 0 35.625 0H24.375Z" fill="white"/>
</svg>
