<svg width="60" height="60" viewBox="0 0 60 60" fill="none" xmlns="http://www.w3.org/2000/svg">
<g clip-path="url(#clip0_28_85)">
<path d="M44.0002 60.1172C43.8148 59.8468 43.5231 59.7799 43.3024 59.6338C42.4448 59.0662 42.058 58.2346 42.0414 57.2599C42.0051 55.1319 42.0152 53.0028 42.0353 50.8744C42.0574 48.5391 43.9416 46.4647 46.2335 46.1046C46.9906 45.9856 47.6277 46.1248 48.3185 46.3989C50.1823 47.1384 52.0803 47.186 53.9371 46.3666C55.5529 45.6536 56.9296 46.1918 58.2468 47.0954C59.2183 47.7619 59.7595 48.7359 60.1009 49.8832C60.1172 52.5806 60.1172 55.2393 60.106 57.9924C59.7904 59.0494 59.0483 59.6125 58.2422 60.1172C53.5132 60.1172 48.7842 60.1172 44.0002 60.1172ZM57.9679 53.2617C57.9679 52.5398 57.9692 51.8178 57.9676 51.0958C57.9652 50.0084 57.4674 49.1805 56.5605 48.6311C56.0061 48.2953 55.4271 48.2085 54.7388 48.4757C52.6536 49.2854 50.5101 49.3696 48.3364 48.7805C47.7832 48.6306 47.2949 48.2382 46.6883 48.3044C45.4161 48.4431 44.2346 49.7312 44.2251 51.0128C44.2105 52.9835 44.2167 54.9544 44.2235 56.9251C44.2259 57.6334 44.5536 57.9628 45.2627 57.9637C49.1652 57.9687 53.0678 57.9685 56.9703 57.9637C57.6354 57.9629 57.9619 57.6226 57.9652 56.9497C57.9708 55.7595 57.9674 54.5692 57.9679 53.2617Z" fill="white"/>
<path d="M0.117188 49.8596C0.417357 49.1157 0.699687 48.4262 1.19933 47.8366C2.25382 46.592 3.61759 46.0682 5.20112 46.0228C5.57929 46.012 5.90589 46.2316 6.24449 46.3697C8.26101 47.1924 10.2485 47.1186 12.2381 46.2584C13.5582 45.6877 14.781 46.152 15.8844 46.8347C17.4147 47.7814 18.1694 49.2435 18.1978 51.0387C18.2288 52.9884 18.1922 54.9391 18.2094 56.8892C18.221 58.2057 17.7534 59.2327 16.5577 59.8702C16.4739 59.9149 16.4064 59.9901 16.3102 60.0841C11.5601 60.1172 6.83104 60.1172 2.0214 60.0876C1.13131 59.6552 0.599459 58.9736 0.117188 58.2422C0.117188 55.4663 0.117188 52.6904 0.117188 49.8596ZM2.26756 56.8579C2.28112 57.7094 2.537 57.9654 3.38945 57.9657C7.19575 57.967 11.0021 57.9676 14.8084 57.9654C15.7108 57.9649 16.0104 57.6711 16.0125 56.7826C16.0169 54.9673 15.9953 53.1517 16.0248 51.3369C16.0351 50.7009 15.8516 50.149 15.5472 49.62C14.943 48.5703 13.7403 48.0844 12.7434 48.4721C10.2742 49.4324 7.80697 49.3694 5.35223 48.4275C4.98687 48.2873 4.64678 48.2615 4.27971 48.3651C3.12554 48.6908 2.27186 49.803 2.26892 51.0109C2.26425 52.9238 2.26761 54.8367 2.26756 56.8579Z" fill="white"/>
<path d="M31.7029 0.117188C31.8651 0.307728 32.0716 0.342142 32.2479 0.410387C34.5212 1.29066 35.7764 2.94293 36.1505 5.35025C36.6541 8.59145 34.0818 11.7067 31.0563 12.1554C27.6604 12.659 24.471 10.1366 24.0648 6.87144C23.7158 4.06686 25.5221 1.16164 28.0735 0.371259C28.1997 0.332172 28.3114 0.246484 28.4532 0.149841C29.5337 0.117188 30.5908 0.117188 31.7029 0.117188ZM28.2457 2.7574C27.4185 3.19414 26.8517 3.87128 26.515 4.72726C25.444 7.4496 27.7881 10.3598 30.6483 9.93866C32.9431 9.6008 34.401 7.36879 33.8852 5.24521C33.2949 2.8152 30.5773 1.46756 28.2457 2.7574Z" fill="white"/>
<path d="M28.2422 27.229C26.9146 27.2291 25.6452 27.21 24.3766 27.2337C22.444 27.2697 20.9568 25.8402 21.0353 23.9371C21.1149 22.0076 21.0954 20.0711 21.042 18.1397C20.9767 15.7781 22.5759 13.7255 24.9696 13.1358C25.6896 12.9584 26.4268 12.9849 27.1721 13.3183C29.0531 14.1598 31.0053 14.1593 32.8989 13.3845C33.7394 13.0406 34.5333 12.9602 35.3744 13.1805C36.4757 13.4689 37.4236 14.011 38.125 14.9422C38.8531 15.9088 39.2085 16.9755 39.1887 18.1964C39.1571 20.1482 39.137 22.1022 39.1949 24.0528C39.2439 25.703 37.9666 27.2114 36.032 27.2242C33.455 27.2414 30.8778 27.2288 28.2422 27.229ZM34.8698 15.3376C34.4913 15.1945 34.1422 15.3235 33.7932 15.4539C31.3449 16.3688 28.8971 16.3795 26.448 15.4544C26.1194 15.3303 25.7821 15.2165 25.4233 15.3092C24.1627 15.6349 23.2454 16.8316 23.2434 18.1579C23.2405 20.0322 23.2421 21.9066 23.2444 23.7809C23.2455 24.6654 23.5946 25.0338 24.4698 25.035C28.238 25.0403 32.0062 25.0403 35.7743 25.0343C36.6177 25.033 36.9884 24.653 36.9895 23.8268C36.9918 22.011 36.9283 20.1924 37.011 18.3804C37.0703 17.0805 36.1077 15.6834 34.8698 15.3376Z" fill="white"/>
<path d="M20.5166 12.7694C20.2928 13.1573 20.2372 13.5783 19.9067 13.8691C19.4791 14.2451 18.9668 14.3496 18.5199 14.0344C18.084 13.7271 17.8885 13.2993 18.0944 12.7598C18.218 12.436 18.3477 12.1146 18.5096 11.7034C17.935 11.9017 17.5381 12.2284 17.1294 12.5275C14.0315 14.7951 11.713 17.7006 10.1468 21.1947C9.18929 23.3309 8.57073 25.5667 8.34418 27.9106C8.27839 28.5912 8.25979 29.2674 8.24065 29.9472C8.2192 30.7088 7.77893 31.2134 7.15433 31.2108C6.4293 31.2079 6.05526 30.7793 6.05315 29.9428C6.0411 25.1595 7.38133 20.7808 10.0156 16.7979C11.1668 15.0573 12.5051 13.4875 14.0952 12.1103C15.4129 10.9692 16.7974 9.95368 18.3149 9.10851C18.3621 9.08222 18.3929 9.02635 18.4493 8.96451C17.851 8.69126 17.255 8.45075 16.6892 8.15293C15.9237 7.74999 15.8449 6.69229 16.5282 6.22436C16.8774 5.98524 17.2694 5.97801 17.6434 6.14388C18.9409 6.71941 20.2379 7.29699 21.5216 7.90233C22.2208 8.23206 22.3933 8.82996 22.046 9.56813C21.5488 10.6249 21.0407 11.6766 20.5166 12.7694Z" fill="white"/>
<path d="M57.1622 27.4431C57.0437 27.7454 56.8903 27.9656 56.6928 28.1618C55.8477 29.0016 55.0119 29.8506 54.1635 30.6871C53.4379 31.4025 52.8132 31.3884 52.1005 30.6694C51.2068 29.7677 50.3106 28.8686 49.4108 27.9731C49.053 27.6171 48.99 27.1926 49.1114 26.732C49.2265 26.2955 49.5851 26.113 49.9821 26.0519C50.4612 25.9781 50.8275 26.258 51.1747 26.5467C51.3344 26.6795 51.4251 26.8982 51.7008 26.9519C51.808 26.452 51.5972 25.9956 51.5 25.5474C50.7273 21.9853 49.1576 18.8114 46.8191 16.0078C44.6036 13.3518 41.864 11.4157 38.7363 9.99687C38.2208 9.763 38.0044 9.39098 38.0484 8.83868C38.1029 8.15433 38.6822 7.71059 39.3528 7.90264C40.5619 8.24884 41.6341 8.89607 42.7017 9.53483C44.5316 10.6297 46.1848 11.9555 47.6389 13.5161C49.8513 15.8906 51.5596 18.5796 52.674 21.641C53.2944 23.3451 53.7749 25.0773 53.9641 26.8853C53.9815 27.052 54.0638 27.212 54.1299 27.4184C54.6144 27.1681 54.877 26.7128 55.2614 26.3992C55.699 26.0422 56.1717 25.8764 56.7016 26.1957C57.1611 26.4726 57.2841 26.8955 57.1622 27.4431Z" fill="white"/>
<path d="M54.6128 34.0816C55.4799 34.7643 56.177 35.5235 56.6373 36.5011C57.6328 38.6148 57.3224 41.1645 55.7703 43.0527C53.6686 45.6095 49.762 45.8727 47.3277 43.9071C45.9473 42.7925 45.1189 41.3384 45.0635 39.486C45.0263 38.244 45.2121 37.0932 45.8552 36.0136C46.7844 34.4538 48.1426 33.5076 49.8968 33.1304C51.582 32.768 53.1338 33.1654 54.6128 34.0816ZM51.2566 42.9664C53.1872 43.0177 55.3252 41.0289 54.9321 38.6026C54.6707 36.9899 53.5612 35.7259 52.052 35.3503C50.5445 34.9751 48.8264 35.6326 47.9987 36.85C47.1146 38.1507 46.9743 39.4944 47.7034 40.8662C48.4226 42.2194 49.5677 42.9768 51.2566 42.9664Z" fill="white"/>
<path d="M15.1582 39.5924C15.1323 42.0098 13.0976 44.4753 10.6297 45.0227C8.46563 45.5028 6.45548 45.0888 4.85168 43.5052C2.68459 41.3655 2.30662 37.9137 4.29229 35.3934C5.56505 33.778 7.21574 32.9965 9.2443 33.0118C12.3697 33.0354 15.2735 35.7055 15.159 38.9514C15.1521 39.1462 15.1581 39.3414 15.1582 39.5924ZM6.06978 41.4574C7.75205 43.6168 10.8224 43.4757 12.3284 41.255C13.2331 39.921 13.2932 38.4267 12.3628 37.0293C11.4702 35.6884 10.201 35.0995 8.57713 35.3057C5.8212 35.6557 4.18767 38.9723 6.06978 41.4574Z" fill="white"/>
<path d="M28.8465 54.1851C27.0303 54.0496 25.2883 53.801 23.5123 53.3004C23.5854 53.729 23.8009 53.9978 23.9581 54.2956C24.2034 54.7605 24.3131 55.2497 24.0195 55.7384C23.7748 56.1456 23.3739 56.1807 22.9452 56.1778C22.5467 56.1751 22.3368 55.9045 22.1647 55.6371C21.3839 54.4239 20.8003 53.1025 20.1517 51.8184C19.8072 51.1365 20.0496 50.6503 20.7333 50.2779C21.0635 50.098 21.4271 50.0281 21.7801 49.9236C22.73 49.6425 23.6743 49.3363 24.6361 49.103C25.6673 48.8529 26.2682 49.3471 26.1659 50.3159C26.1035 50.9063 25.6551 51.1412 25.083 51.3222C26.0292 51.6656 26.9681 51.7496 27.8948 51.8611C28.8208 51.9726 29.7543 52.03 30.6904 51.9911C33.1524 51.8888 35.5455 51.4457 37.8499 50.5579C38.2129 50.418 38.575 50.269 38.9674 50.2383C39.6372 50.1858 40.009 50.4444 40.1788 51.0653C40.3108 51.5477 40.0712 52.0544 39.5407 52.2944C38.084 52.9535 36.5557 53.3892 34.9937 53.7193C32.9832 54.1443 30.9494 54.2419 28.8465 54.1851Z" fill="white"/>
</g>
<defs>
<clipPath id="clip0_28_85">
<rect width="60" height="60" fill="white"/>
</clipPath>
</defs>
</svg>
