<svg width="329" height="35" viewBox="0 0 329 35" fill="none" xmlns="http://www.w3.org/2000/svg">
<path d="M327.689 33.9433C328.418 33.879 328.916 33.4967 328.801 33.0893L326.924 26.4517C326.81 26.0444 326.125 25.7663 325.396 25.8305C324.667 25.8948 324.168 26.2771 324.284 26.6845L325.951 32.5846L315.383 33.5158C314.654 33.58 314.157 33.9623 314.271 34.3696C314.387 34.7769 315.071 35.0551 315.8 34.9908L327.689 33.9433ZM1.71014 27.8593C80.7351 -6.89078 219.688 -9.65055 326.694 33.8096L328.267 32.6019C220.41 -11.2043 80.1295 -8.52522 0.055481 26.6862L1.71014 27.8593Z" fill="white"/>
</svg>
